<svg xmlns="http://www.w3.org/2000/svg" xmlns:xlink="http://www.w3.org/1999/xlink" width="20.908" height="20.905" viewBox="0 0 20.908 20.905">
  <defs>
    <clipPath id="clip-path">
      <rect id="Rectangle_60" data-name="Rectangle 60" width="20.908" height="20.905" fill="#fff"/>
    </clipPath>
  </defs>
  <g id="Group_110" data-name="Group 110" clip-path="url(#clip-path)">
    <path id="Path_105" data-name="Path 105" d="M276.1,0h7.1a1.43,1.43,0,0,1,1.266,1.266v9.717a1.56,1.56,0,0,1-1.6,1.286c-2.129,0-4.257.008-6.386,0a1.62,1.62,0,0,1-1.668-1.669q-.014-4.5,0-9a1.6,1.6,0,0,1,.541-1.253A1.349,1.349,0,0,1,276.1,0" transform="translate(-263.563)" fill="#fff"/>
    <path id="Path_106" data-name="Path 106" d="M286.082,346.14c-.068.04-.056.118-.077.178a1.512,1.512,0,0,1-1.415,1.044q-3.3.008-6.591,0a1.5,1.5,0,0,1-1.5-1.517q-.022-1.958,0-3.917a1.52,1.52,0,0,1,1.589-1.533c1.53,0,3.061,0,4.592,0h1.714a1.531,1.531,0,0,1,1.656,1.235c0,.009.02.014.031.02Z" transform="translate(-265.174 -326.461)" fill="#fff"/>
    <path id="Path_107" data-name="Path 107" d="M8.29,0c.071.075.173.049.259.079A1.52,1.52,0,0,1,9.582,1.524c.011,1.306.015,2.612,0,3.917A1.5,1.5,0,0,1,8.051,6.967q-3.265.018-6.53,0A1.508,1.508,0,0,1,0,5.408q0-1.9,0-3.795A1.528,1.528,0,0,1,1.145.047c.031-.01.069-.005.081-.047Z" transform="translate(0)" fill="#fff"/>
    <path id="Path_108" data-name="Path 108" d="M.018,218.808q0-2.235,0-4.47a1.531,1.531,0,0,1,1.623-1.623q3.164,0,6.328,0A1.537,1.537,0,0,1,9.6,214.35q0,4.46,0,8.919a1.535,1.535,0,0,1-1.646,1.642H1.649a1.529,1.529,0,0,1-1.631-1.633q0-2.235,0-4.47" transform="translate(-0.017 -204.008)" fill="#fff"/>
  </g>
</svg>
