<svg id="Component_33_160" data-name="Component 33 – 160" xmlns="http://www.w3.org/2000/svg" xmlns:xlink="http://www.w3.org/1999/xlink" width="20.322" height="26" viewBox="0 0 20.322 26">
  <defs>
    <clipPath id="clip-path">
      <rect id="Rectangle_175" data-name="Rectangle 175" width="20.322" height="26" fill="#de0037"/>
    </clipPath>
  </defs>
  <g id="Group_310" data-name="Group 310" clip-path="url(#clip-path)">
    <path id="Path_193" data-name="Path 193" d="M46.851,113.725q-7.841.01-15.682,0c-.178,0-.23.041-.218.223.156,2.287.3,4.573.457,6.86q.319,4.759.643,9.517a1.763,1.763,0,0,0,1.21,1.592c.057.02.141.006.167.09H44.494c.016-.016.029-.043.047-.047a1.69,1.69,0,0,0,1.4-1.387,9.911,9.911,0,0,0,.09-1.111q.271-3.987.54-7.973.251-3.759.5-7.518c.012-.174-.006-.248-.216-.248M35.8,128.759a.828.828,0,0,1-.856-.814q-.293-3.385-.593-6.769c-.071-.808-.144-1.616-.209-2.425a.818.818,0,1,1,1.622-.106q.291,3.36.589,6.719c.073.833.142,1.667.219,2.572a.807.807,0,0,1-.773.823m4.02-.853a.812.812,0,1,1-1.622,0q0-2.321,0-4.642t0-4.642a.81.81,0,0,1,1.553-.341.892.892,0,0,1,.071.37q0,4.629,0,9.258M43.56,122.4q-.191,2.2-.385,4.395c-.035.4-.067.792-.1,1.187a.819.819,0,0,1-.865.777.8.8,0,0,1-.754-.881c.08-1.053.179-2.105.271-3.158q.191-2.2.383-4.395c.052-.6.1-1.2.157-1.793a.813.813,0,0,1,1.622.093c-.112,1.3-.218,2.537-.326,3.775" transform="translate(-28.849 -106.009)" fill="#de0037"/>
    <path id="Path_194" data-name="Path 194" d="M20.321,5.838c-.018-.363,0-.727,0-1.091a1.773,1.773,0,0,0-1.9-1.9c-1.194,0-2.386,0-3.579,0-.156,0-.221-.024-.212-.2.017-.312.011-.626,0-.938a1.746,1.746,0,0,0-1.711-1.7q-2.754-.018-5.509,0a1.737,1.737,0,0,0-1.671,1.4A5.163,5.163,0,0,0,5.7,2.6c.005.223-.065.255-.266.254q-1.84-.015-3.681,0A1.731,1.731,0,0,0,.049,4.269,12.48,12.48,0,0,0,0,5.839c-.013.209.044.263.259.263q4.95-.012,9.9-.005t9.9.005c.215,0,.269-.056.259-.264M12.75,2.849c-.862-.006-1.724,0-2.586,0s-1.708-.006-2.562,0c-.227,0-.3-.077-.286-.3a6.763,6.763,0,0,0,0-.684c-.005-.169.05-.246.231-.246q2.613.006,5.225,0c.178,0,.24.071.235.242-.008.245-.01.491,0,.736.008.193-.076.247-.258.246" transform="translate(0 0)" fill="#de0037"/>
  </g>
</svg>
