<svg id="Component_86_1" data-name="Component 86 – 1" xmlns="http://www.w3.org/2000/svg" width="31.15" height="31.167" viewBox="0 0 31.15 31.167">
  <path id="Path_247" data-name="Path 247" d="M0,16.885V14.332a17,17,0,0,1,.275-2.066A15.738,15.738,0,0,1,8.582,1.6,14.1,14.1,0,0,1,13.92.067a16.848,16.848,0,0,1,5.458.362A15.7,15.7,0,0,1,31.005,13.158a18.778,18.778,0,0,1,.119,3.511,13.8,13.8,0,0,1-1.212,5.14,15.818,15.818,0,0,1-7.22,7.722A14.881,14.881,0,0,1,17.7,31.1c-.348.043-.7.019-1.051.07h-2.31a15.721,15.721,0,0,1-2.1-.269A15.789,15.789,0,0,1,2.035,23.459a15.351,15.351,0,0,1-1.96-5.676c-.04-.3-.015-.6-.075-.9" transform="translate(0 -0.001)" fill="#707070"/>
  <path id="Path_248" data-name="Path 248" d="M75.092,89.093c-.075-.061-.125-.094-.166-.136-.917-.916-1.829-1.837-2.754-2.745-.163-.16-.035-.216.051-.3l4.747-4.748c.759-.759,1.523-1.513,2.273-2.281.15-.154.224-.149.372,0q1.31,1.332,2.643,2.642c.151.148.148.226,0,.375q-3.509,3.494-7.006,7c-.057.057-.1.125-.159.194" transform="translate(-62.1 -67.849)" fill="#fefefe"/>
  <path id="Path_249" data-name="Path 249" d="M52.422,145.022a.58.58,0,0,1-.621-.687c.2-.928.41-1.852.62-2.777.077-.341.367-.521.587-.75.4-.419.409-.414.814-.008.808.808,1.612,1.621,2.429,2.42.158.154.121.218,0,.373a2.737,2.737,0,0,1-1.855,1.01c-.588.08-1.163.251-1.744.38-.088.02-.179.031-.225.039" transform="translate(-44.609 -121.019)" fill="#fefefe"/>
  <path id="Path_250" data-name="Path 250" d="M138.146,61.273a.511.511,0,0,1-.16.366c-.442.444-.89.882-1.326,1.333-.113.118-.171.079-.263-.014q-1.369-1.376-2.746-2.743c-.106-.1-.1-.161,0-.263.442-.43.871-.873,1.312-1.3a.452.452,0,0,1,.715,0c.768.761,1.53,1.529,2.3,2.292a.563.563,0,0,1,.171.327" transform="translate(-115.057 -50.37)" fill="#fefefe"/>
</svg>
