<svg xmlns="http://www.w3.org/2000/svg" width="20.112" height="20.114" viewBox="0 0 20.112 20.114">
  <g id="Group_340" data-name="Group 340" transform="translate(-1675.7 -191.7)">
    <path id="Path_197" data-name="Path 197" d="M18.736,274.508c-1.035.017-2.07,0-3.1.009-.143,0-.2-.033-.242-.18a2.829,2.829,0,0,0-5.438-.025c-.047.172-.119.205-.283.2-2.971-.005-5.942,0-8.913-.009a.711.711,0,0,0-.756.469v.305a.641.641,0,0,0,.7.513c.076,0,.153,0,.229,0H9.234c.14,0,.28,0,.419,0a.223.223,0,0,1,.251.179,2.813,2.813,0,0,0,.4.817,2.67,2.67,0,0,0,1.927,1.158h.838c.159-.041.328-.024.484-.079a2.884,2.884,0,0,0,1.848-1.817c.093-.258.087-.26.359-.261,1.01,0,2.02,0,3.03,0a.64.64,0,0,0,.719-.51v-.305a.723.723,0,0,0-.776-.47m-6.062,2.228a1.619,1.619,0,1,1,0-3.237,1.619,1.619,0,0,1,0,3.237" transform="translate(1676 -66.437)" fill="#a9aaae"/>
    <path id="Path_197_-_Outline" data-name="Path 197 - Outline" d="M13.109,278.251l-.906,0a2.976,2.976,0,0,1-2.138-1.277,3.064,3.064,0,0,1-.438-.874c-.089,0-.175,0-.262,0H.69a.937.937,0,0,1-.976-.721L-.3,275.33v-.409l.021-.053a1.007,1.007,0,0,1,1.031-.66H.757c1.721.005,3.471.006,5.164.006q1.873,0,3.747,0a3.145,3.145,0,0,1,2.995-2.238h.02a3.161,3.161,0,0,1,2.986,2.238c.409,0,.809,0,1.211,0h.573c.35,0,.812,0,1.279-.009h.031a1.013,1.013,0,0,1,1.029.657l.022.054v.411l-.014.045a.936.936,0,0,1-1,.718H15.709l-.016.044-.006.018a3.182,3.182,0,0,1-2.031,2,1.364,1.364,0,0,1-.34.063,1.161,1.161,0,0,0-.169.023Zm-.861-.6h.788a1.855,1.855,0,0,1,.223-.03.875.875,0,0,0,.2-.032,2.575,2.575,0,0,0,1.666-1.635l.006-.018c.13-.363.243-.441.634-.442h1.852l1.177,0c.274,0,.35-.06.42-.259v-.193c-.072-.148-.18-.233-.451-.233h-.021c-.471.008-.936.009-1.289.009H16.305l-.671,0h-.008a.491.491,0,0,1-.525-.4,2.549,2.549,0,0,0-2.422-1.836h-.016a2.535,2.535,0,0,0-2.421,1.813.526.526,0,0,1-.568.425q-1.88,0-3.752,0c-1.693,0-3.443,0-5.165-.006-.278,0-.386.084-.456.23v.195c.074.208.155.256.406.263H9.234l.268,0,.141,0H9.67a.517.517,0,0,1,.519.387,2.506,2.506,0,0,0,.358.73A2.371,2.371,0,0,0,12.249,277.651Zm.426-.615a1.919,1.919,0,1,1,0-3.837h0a1.933,1.933,0,0,1,1.917,1.93A1.921,1.921,0,0,1,12.674,277.036Zm0-3.237a1.333,1.333,0,1,0,.929.391,1.309,1.309,0,0,0-.929-.391Z" transform="translate(1676 -66.437)" fill="#a9aaae"/>
    <path id="Path_198" data-name="Path 198" d="M19.182,2.235a1.046,1.046,0,0,0-.427-.078c-1.01,0-2.02,0-3.029,0a.274.274,0,0,1-.313-.226,2.649,2.649,0,0,0-.7-1.144A2.564,2.564,0,0,0,13.034,0h-.8a2.828,2.828,0,0,0-.75.186A2.945,2.945,0,0,0,9.926,1.9c-.092.25-.092.251-.369.251H6.395q-2.82,0-5.639,0c-.446,0-.631.13-.755.514v.305a.717.717,0,0,0,.757.469c2.984-.009,5.967,0,8.951-.008.132,0,.2.026.235.168A2.828,2.828,0,0,0,15.394,3.6c.035-.128.088-.163.219-.162,1.047.006,2.095-.006,3.142.009a.713.713,0,0,0,.757-.469V2.668a.56.56,0,0,0-.33-.433M12.666,4.452a1.619,1.619,0,1,1,1.622-1.625,1.626,1.626,0,0,1-1.622,1.625" transform="translate(1676 192)" fill="#a9aaae"/>
    <path id="Path_198_-_Outline" data-name="Path 198 - Outline" d="M12.662,5.972A3.131,3.131,0,0,1,9.669,3.735l-3.372,0c-1.815,0-3.693,0-5.539.006H.753A1.013,1.013,0,0,1-.278,3.085L-.3,3.031v-.41l.015-.045A.941.941,0,0,1,.755,1.854H9.624l.02-.054a3.254,3.254,0,0,1,1.71-1.885,2.518,2.518,0,0,1,.7-.19L12.181-.3l.026,0h.842a2.836,2.836,0,0,1,1.875.874A2.942,2.942,0,0,1,15.7,1.847l0,.013h.017c.529,0,1.055,0,1.454,0H18.76a1.323,1.323,0,0,1,.54.1.854.854,0,0,1,.5.645l.007.032v.4l-.022.054a1,1,0,0,1-1.013.657h-.026c-.478-.007-.942-.008-1.333-.008H16.351l-.684,0a3.136,3.136,0,0,1-2.985,2.238ZM9.708,3.135a.49.49,0,0,1,.525.389,2.529,2.529,0,0,0,2.43,1.849h.016A2.533,2.533,0,0,0,15.1,3.517a.478.478,0,0,1,.505-.384c.431,0,.85,0,1.273,0h.534c.393,0,.86,0,1.342.008h.018a.408.408,0,0,0,.435-.233V2.7a.248.248,0,0,0-.149-.193.747.747,0,0,0-.3-.054H17.175c-.4,0-.923,0-1.447,0h-.007a.569.569,0,0,1-.6-.44,2.348,2.348,0,0,0-.619-1.015A2.264,2.264,0,0,0,13.025.3h-.766l-.1.017a2.03,2.03,0,0,0-.543.14,2.638,2.638,0,0,0-1.4,1.549c-.136.372-.246.448-.65.448H.756c-.314,0-.383.055-.456.263V2.91c.071.148.179.232.453.232C2.6,3.137,4.481,3.137,6.3,3.136Zm2.963,1.618h-.005A1.919,1.919,0,0,1,12.658.914h.008a1.913,1.913,0,0,1,1.357,3.271A1.9,1.9,0,0,1,12.671,4.752Zm-.005-3.238H12.66a1.305,1.305,0,0,0-1.31,1.328,1.322,1.322,0,0,0,1.317,1.31,1.333,1.333,0,0,0,1.321-1.325A1.322,1.322,0,0,0,12.665,1.514Z" transform="translate(1676 192)" fill="#a9aaae"/>
    <path id="Path_199" data-name="Path 199" d="M18.729,138.332c-2.972.01-5.944,0-8.916.01-.158,0-.21-.047-.25-.193a2.833,2.833,0,0,0-5.446.025c-.033.12-.072.169-.21.168-1.042-.008-2.083.006-3.124-.01a.735.735,0,0,0-.782.463v.3a.742.742,0,0,0,.783.463c1.041-.016,2.083,0,3.124-.01.139,0,.178.048.211.168a2.832,2.832,0,0,0,5.446.024c.041-.148.1-.192.251-.191,2.972.006,5.943,0,8.915.01a.745.745,0,0,0,.782-.463v-.3a.748.748,0,0,0-.783-.463M6.847,140.565a1.617,1.617,0,1,1,1.616-1.625,1.625,1.625,0,0,1-1.616,1.625" transform="translate(1676 62.81)" fill="#a9aaae"/>
    <path id="Path_199_-_Outline" data-name="Path 199 - Outline" d="M6.85,142.085H6.841a3.128,3.128,0,0,1-3-2.232l-.794,0H2.1c-.389,0-.85,0-1.317.008H.759a1.033,1.033,0,0,1-1.034-.644l-.025-.057v-.428l.024-.056a1.032,1.032,0,0,1,1.063-.646c.465.007.92.008,1.3.008h.987q.382,0,.765,0a3.121,3.121,0,0,1,3-2.232h.01a3.111,3.111,0,0,1,2.995,2.232c1.262,0,2.546,0,3.787,0,1.67,0,3.4,0,5.1-.007h.008a1.036,1.036,0,0,1,1.051.643l.025.057v.429l-.024.057a1.034,1.034,0,0,1-1.053.645h-.005c-1.714-.006-3.457-.006-5.142-.007q-1.871,0-3.743,0A3.115,3.115,0,0,1,6.85,142.085Zm-2.939-2.832a.473.473,0,0,1,.5.389,2.525,2.525,0,0,0,2.436,1.843H6.85a2.545,2.545,0,0,0,2.424-1.821.5.5,0,0,1,.537-.411q1.891,0,3.775,0c1.686,0,3.429,0,5.144.007.29,0,.405-.083.481-.23v-.17c-.077-.147-.192-.231-.476-.231H18.73c-1.7.006-3.427.006-5.1.007-1.252,0-2.546,0-3.818,0a.5.5,0,0,1-.54-.414A2.541,2.541,0,0,0,6.85,136.41H6.842a2.551,2.551,0,0,0-2.435,1.842.473.473,0,0,1-.5.39H3.9c-.44,0-.88,0-1.32,0H2.091c-.386,0-.844,0-1.313-.008H.756c-.272,0-.382.083-.456.229v.172a.44.44,0,0,0,.459.23H.778c.471-.007.934-.008,1.326-.008h.945c.343,0,.606,0,.855,0Zm2.929,1.612a1.925,1.925,0,0,1-1.916-1.921,1.925,1.925,0,0,1,1.907-1.914h.017a1.917,1.917,0,0,1,0,3.835Zm.008-3.235H6.836a1.314,1.314,0,0,0-.925,2.246,1.3,1.3,0,0,0,.929.389h.005a1.317,1.317,0,0,0,0-2.635Z" transform="translate(1676 62.81)" fill="#a9aaae"/>
  </g>
</svg>
