<svg id="Group_155" data-name="Group 155" xmlns="http://www.w3.org/2000/svg" xmlns:xlink="http://www.w3.org/1999/xlink" width="26.537" height="24.311" viewBox="0 0 26.537 24.311">
  <defs>
    <clipPath id="clip-path">
      <rect id="Rectangle_79" data-name="Rectangle 79" width="26.537" height="24.311" fill="#018a83"/>
    </clipPath>
  </defs>
  <g id="Group_154" data-name="Group 154" clip-path="url(#clip-path)">
    <path id="Path_136" data-name="Path 136" d="M309.374,163.028a11.155,11.155,0,0,1-4.25.986c-.175.012-.194-.056-.194-.2a7.711,7.711,0,0,0-.1-1.778,4.714,4.714,0,0,0-3.113-3.512l-.171-.066a4.4,4.4,0,0,0,.744-1.013,3.591,3.591,0,0,0,.41-1.429c.009-.169.04-.254.251-.249.828.017,1.658,0,2.486.012a3.987,3.987,0,0,1,3.89,3.443c.005.035.008.068.048.079Z" transform="translate(-282.837 -146.1)" fill="#018a83"/>
    <path id="Path_137" data-name="Path 137" d="M99.278,263.753c0,.668-.015,1.2.007,1.738a.365.365,0,0,1-.265.4,10.533,10.533,0,0,1-3.2.79,17.718,17.718,0,0,1-6.993-.788.276.276,0,0,1-.238-.319c.011-.984,0-1.968.005-2.952a4.016,4.016,0,0,1,4.125-4.118,28.374,28.374,0,0,1,3.105.046,4,4,0,0,1,3.4,3.32c.1.671.023,1.344.053,1.883" transform="translate(-83.096 -242.448)" fill="#018a83"/>
    <path id="Path_138" data-name="Path 138" d="M8.158,209.34a4.806,4.806,0,0,0-2.531,1.831,4.651,4.651,0,0,0-.866,2.764c0,.25-.01.5,0,.751.01.17-.049.192-.207.182a19.992,19.992,0,0,1-4.381-.846.2.2,0,0,1-.175-.23c.006-1.07-.014-2.141.009-3.211A3.98,3.98,0,0,1,3.9,206.665c.949-.026,1.9-.006,2.849-.005.106,0,.226-.029.236.15a3.841,3.841,0,0,0,1.17,2.53" transform="translate(0 -193.831)" fill="#018a83"/>
    <path id="Path_139" data-name="Path 139" d="M218.247,209.337a4.156,4.156,0,0,0,.893-1.326,4,4,0,0,0,.277-1.177c.01-.115.019-.183.171-.181.94.012,1.882-.016,2.821.022a4.019,4.019,0,0,1,3.6,3.282,17.194,17.194,0,0,1,.06,2.2c.01.509-.009,1.019.008,1.527a.316.316,0,0,1-.227.343,10.286,10.286,0,0,1-2.961.776c-.325.04-.654.051-.978.1-.207.029-.283-.009-.275-.242a6.174,6.174,0,0,0-.191-2.076,4.72,4.72,0,0,0-3.019-3.166c-.056-.02-.11-.044-.183-.072" transform="translate(-204.707 -193.832)" fill="#018a83"/>
    <path id="Path_140" data-name="Path 140" d="M117.547,3.41a3.4,3.4,0,1,1,3.389,3.4,3.406,3.406,0,0,1-3.389-3.4" transform="translate(-110.254 -0.001)" fill="#018a83"/>
    <path id="Path_141" data-name="Path 141" d="M124.417,157.451a3.131,3.131,0,1,1,3.114,3.138,3.132,3.132,0,0,1-3.114-3.138" transform="translate(-116.698 -144.749)" fill="#018a83"/>
    <path id="Path_142" data-name="Path 142" d="M35.795,105.413a3.129,3.129,0,0,1,6.258,0,.343.343,0,0,1-.126.291,3.751,3.751,0,0,0-1.3,2.228c-.024.13-.108.181-.209.236a3.121,3.121,0,0,1-4.619-2.753" transform="translate(-33.574 -95.948)" fill="#018a83"/>
    <path id="Path_143" data-name="Path 143" d="M297.625,54.553a3.127,3.127,0,0,1-4.18,2.954.413.413,0,0,1-.32-.366,3.722,3.722,0,0,0-1.589-2.5.316.316,0,0,1-.157-.315,3.129,3.129,0,0,1,6.183-.412,3.709,3.709,0,0,1,.064.643" transform="translate(-273.301 -48.238)" fill="#018a83"/>
    <path id="Path_144" data-name="Path 144" d="M211.245,108.555a3.442,3.442,0,0,1-1.253-.234.254.254,0,0,1-.177-.224,3.739,3.739,0,0,0-1.615-2.6.375.375,0,0,1-.142-.423,3.133,3.133,0,1,1,3.187,3.481" transform="translate(-195.141 -95.949)" fill="#018a83"/>
    <path id="Path_145" data-name="Path 145" d="M138.994,113.294a3.824,3.824,0,0,0-.707,1.907c-.014.178-.119.07-.181.047a3.742,3.742,0,0,0-2.087-.153,3.162,3.162,0,0,0-.85.3c-.106.056-.17.065-.176-.087a3.7,3.7,0,0,0-.713-2.016,37.03,37.03,0,0,1,4.713,0" transform="translate(-125.95 -106.193)" fill="#018a83"/>
  </g>
</svg>
