<svg id="Group_165" data-name="Group 165" xmlns="http://www.w3.org/2000/svg" xmlns:xlink="http://www.w3.org/1999/xlink" width="22.329" height="25.636" viewBox="0 0 22.329 25.636">
  <defs>
    <clipPath id="clip-path">
      <rect id="Rectangle_83" data-name="Rectangle 83" width="22.329" height="25.636" fill="#fff"/>
    </clipPath>
  </defs>
  <g id="Group_164" data-name="Group 164" clip-path="url(#clip-path)">
    <path id="Path_154" data-name="Path 154" d="M3.5,25.636a1.634,1.634,0,0,0-.472-.119A4.008,4.008,0,0,1,0,21.637Q0,12.813.005,3.99A3.992,3.992,0,0,1,4.007,0Q9.639-.006,15.271,0a1.191,1.191,0,0,1,1.261,1.2,1.191,1.191,0,0,1-1.257,1.2q-5.557,0-11.113,0A1.614,1.614,0,0,0,2.405,4.164q0,8.661,0,17.322a1.616,1.616,0,0,0,1.743,1.747q5.569,0,11.138,0a1.2,1.2,0,0,1,.367,2.357.522.522,0,0,0-.084.045Z" transform="translate(0 0)" fill="#fff"/>
    <path id="Path_155" data-name="Path 155" d="M123.673,96.273h-.333q-4.543,0-9.085,0a1.2,1.2,0,1,1,.011-2.4q3.191,0,6.382,0,1.364,0,2.728,0a.449.449,0,0,0,.305-.06,1.821,1.821,0,0,1-.239-.169c-1.14-1.137-2.283-2.272-3.415-3.416a1.193,1.193,0,0,1,.515-2.027,1.164,1.164,0,0,1,1.189.337q1.2,1.2,2.407,2.407,1.6,1.6,3.2,3.2a1.2,1.2,0,0,1,.006,1.848q-2.786,2.789-5.575,5.575a1.2,1.2,0,1,1-1.7-1.693c1.184-1.187,2.371-2.371,3.6-3.6" transform="translate(-105.448 -82.252)" fill="#fff"/>
  </g>
</svg>
