<svg xmlns="http://www.w3.org/2000/svg" width="25" height="20.905" viewBox="0 0 25 20.905">
  <g id="Group_142" data-name="Group 142" transform="translate(-796.883 -447)">
    <path id="Path_88" data-name="Path 88" d="M135.348,222.861q0-10.23,0-20.459c0-.358.044-.443.238-.442q3.262.022,6.524,0c.194,0,.238.084.238.442q-.01,10.23,0,20.459Z" transform="translate(670.54 245.04)" fill="#018a83"/>
    <path id="Path_89" data-name="Path 89" d="M269.958,260.03q0-6.4,0-12.8c0-.3.044-.371.236-.37q3.263.018,6.527,0c.193,0,.237.07.236.37q-.011,6.4,0,12.8Z" transform="translate(544.93 207.871)" fill="#018a83"/>
    <path id="Path_91" data-name="Path 91" d="M0,291.759c2.253,0,4.506,0,6.759-.007.192,0,.238.066.237.35-.008,2.673,0,5.346,0,8.02-2.276,0-4.553,0-6.829.006-.138,0-.166-.041-.166-.246q.009-4.062,0-8.123" transform="translate(796.883 167.777)" fill="#018a83"/>
  </g>
</svg>
