<svg id="Group_157" data-name="Group 157" xmlns="http://www.w3.org/2000/svg" xmlns:xlink="http://www.w3.org/1999/xlink" width="26.537" height="26.849" viewBox="0 0 26.537 26.849">
  <defs>
    <clipPath id="clip-path">
      <rect id="Rectangle_80" data-name="Rectangle 80" width="26.537" height="26.849" fill="#fff"/>
    </clipPath>
  </defs>
  <g id="Group_156" data-name="Group 156" clip-path="url(#clip-path)">
    <path id="Path_146" data-name="Path 146" d="M317,132.528c0-.087-.013-.174-.013-.261q0-9.162-.006-18.324c0-.233.051-.3.294-.3q1.874.021,3.749,0c.217,0,.272.052.271.271q-.01,9.149,0,18.3c0,.1.006.209.01.314Z" transform="translate(-294.76 -105.679)" fill="#fff"/>
    <path id="Path_147" data-name="Path 147" d="M105.5,167.509c.006-.1.017-.208.017-.312q0-7.809-.005-15.617c0-.249.054-.32.312-.317,1.249.015,2.5.012,3.747,0,.215,0,.256.067.256.265q-.008,7.874,0,15.748c0,.077-.014.154-.022.232Z" transform="translate(-98.102 -140.66)" fill="#fff"/>
    <path id="Path_148" data-name="Path 148" d="M211.369,213.21c-.008-.086-.022-.172-.022-.258q0-6.13-.007-12.26c0-.228.051-.285.282-.283q1.873.02,3.746,0c.224,0,.289.044.288.281q-.013,6.1-.005,12.208c0,.1.011.208.017.312Z" transform="translate(-196.527 -186.361)" fill="#fff"/>
    <path id="Path_149" data-name="Path 149" d="M0,248.983c0-.227.01-.454.01-.681q0-4.574,0-9.148c0-.213.048-.278.27-.277,1.267.011,2.534.008,3.8,0,.17,0,.242.026.242.223q-.01,4.875-.005,9.75c0,.043-.008.086-.012.13Z" transform="translate(0 -222.134)" fill="#fff"/>
    <path id="Path_150" data-name="Path 150" d="M2.025,9.569A2.038,2.038,0,0,1,3.134,7.843a2.07,2.07,0,0,1,2.212.052.35.35,0,0,0,.433,0q1.659-1,3.332-1.97A.3.3,0,0,0,9.29,5.6a2.173,2.173,0,1,1,4.337-.275.223.223,0,0,0,.164.224q1.658.673,3.311,1.357a.242.242,0,0,0,.294-.059,2.119,2.119,0,0,1,2.319-.372.257.257,0,0,0,.317-.052Q21.963,4.771,23.9,3.129a.3.3,0,0,0,.112-.371A2.172,2.172,0,0,1,27.5.5a2.176,2.176,0,0,1-1.591,3.838,1.509,1.509,0,0,1-.507-.114.378.378,0,0,0-.478.084q-1.906,1.642-3.829,3.264a.332.332,0,0,0-.136.391,2.172,2.172,0,1,1-4.282.615.223.223,0,0,0-.163-.226Q14.854,7.685,13.2,7a.233.233,0,0,0-.278.047,2.142,2.142,0,0,1-2.682.191.232.232,0,0,0-.281,0Q8.228,8.268,6.492,9.288a.234.234,0,0,0-.128.271A2.172,2.172,0,0,1,4.338,11.9,2.2,2.2,0,0,1,2.025,9.569" transform="translate(-1.883 0)" fill="#fff"/>
  </g>
</svg>
