<svg xmlns="http://www.w3.org/2000/svg" width="18.442" height="21.573" viewBox="0 0 18.442 21.573">
  <g id="Group_382" data-name="Group 382" transform="translate(-0.014 0.04)">
    <path id="Path_229" data-name="Path 229" d="M-505.55,1493.071a9.217,9.217,0,0,0-1.551-3.642,9.136,9.136,0,0,0-3.2-2.8,8.736,8.736,0,0,0-2.647-.914c-.163-.028-.236-.081-.224-.266.02-.336.01-.674,0-1.011,0-.118.029-.157.151-.155.4.007.8.005,1.2,0a.4.4,0,0,0,.458-.448c.007-.295-.006-.59,0-.885a.5.5,0,0,0-.272-.518h-6.235a.516.516,0,0,0-.274.539c.009.274,0,.547,0,.821,0,.36.137.49.5.491.472,0,.941,0,1.411,0,.118,0,.156.032.153.153a8.884,8.884,0,0,0,0,.947c.02.236-.071.3-.286.342a8.625,8.625,0,0,0-4.12,1.928,9.048,9.048,0,0,0-3.293,8.287,8.733,8.733,0,0,0,2.341,5.065,9.2,9.2,0,0,0,10.286,2.318A9.245,9.245,0,0,0-505.55,1493.071Zm-9.077,9.139a7.406,7.406,0,0,1-5.258-2.172,7.407,7.407,0,0,1-2.167-5.26,7.438,7.438,0,0,1,7.436-7.449,7.433,7.433,0,0,1,7.433,7.449,7.407,7.407,0,0,1-2.173,5.267A7.406,7.406,0,0,1-514.626,1502.21Z" transform="translate(523.84 -1482.47)" fill="#292426"/>
    <path id="Path_230" data-name="Path 230" d="M-511.784,1535.882a1.87,1.87,0,0,1,1.335.518c.073.068.084.1,0,.177q-1.318,1.209-2.629,2.428c-.059.059-.093.071-.16-.006a1.915,1.915,0,0,1,.913-3.032A1.765,1.765,0,0,1-511.784,1535.882Z" transform="translate(514.28 -1532.769)" fill="#292426"/>
    <path id="Path_231" data-name="Path 231" d="M-363.228,1585.194c0,.171-.09.136-.182.136h-3.138c-1.052,0-2.105,0-3.158,0-.156,0-.2-.034-.195-.193q.009-3.148,0-6.3c0-.136.014-.189.177-.183a6.562,6.562,0,0,1,5.343,2.923A6.388,6.388,0,0,1-363.228,1585.194Z" transform="translate(378.994 -1573.025)" fill="#292426"/>
    <path id="Path_232" data-name="Path 232" d="M-472.844,1677.178c0,.1-.011.149-.132.148-.576-.007-1.151-.005-1.727,0-.1,0-.13-.03-.129-.131.005-.407.006-.814,0-1.221,0-.118.038-.139.144-.137.288.007.576,0,.863,0s.562.005.842,0c.113,0,.141.034.139.142C-472.849,1676.378-472.848,1676.778-472.844,1677.178Z" transform="translate(477.735 -1664.468)" fill="#292426"/>
    <path id="Path_233" data-name="Path 233" d="M-368.687,1768.719c0,.113-.034.142-.143.139-.3-.007-.6-.006-.9,0-.1,0-.148-.014-.146-.133.007-.568.005-1.136,0-1.7,0-.107.026-.147.14-.144.3.008.6.009.9,0,.129,0,.15.049.148.161-.006.287,0,.574,0,.862C-368.69,1768.173-368.7,1768.446-368.687,1768.719Z" transform="translate(378.976 -1750.138)" fill="#292426"/>
    <path id="Path_234" data-name="Path 234" d="M-459.642,1728.273c0,.076-.054.084-.086.1-.362.212-.727.421-1.088.632-.073.042-.11.044-.163-.038-.265-.4-.269-.4.14-.639.267-.154.531-.309.8-.461.039-.022.1-.081.122-.044C-459.814,1727.975-459.726,1728.133-459.642,1728.273Z" transform="translate(464.875 -1713.38)" fill="#292426"/>
    <path id="Path_235" data-name="Path 235" d="M-460.063,1629.624c-.09.146-.177.3-.282.453-.025.036-.074-.014-.109-.034-.363-.209-.724-.422-1.09-.628-.075-.042-.1-.07-.052-.156.221-.435.218-.437.643-.191l.78.453C-460.133,1629.544-460.08,1629.557-460.063,1629.624Z" transform="translate(465.302 -1620.302)" fill="#292426"/>
    <path id="Path_236" data-name="Path 236" d="M-420.82,1761.663l-.708,1.2a.046.046,0,0,1-.032.024.047.047,0,0,1-.039-.009c-.018-.011-.036-.022-.054-.031-.425-.215-.425-.215-.186-.624.155-.265.314-.531.461-.8.054-.1.1-.106.188-.047s.2.122.306.182C-420.847,1761.582-420.8,1761.6-420.82,1761.663Z" transform="translate(428.02 -1744.928)" fill="#292426"/>
    <path id="Path_237" data-name="Path 237" d="M-421.331,1591.181c-.025.072-.092.085-.144.118-.354.209-.354.209-.556-.141-.162-.278-.321-.557-.488-.832-.049-.081-.05-.118.04-.177.4-.258.4-.262.635.148q.227.39.455.779C-421.368,1591.109-421.35,1591.146-421.331,1591.181Z" transform="translate(428.54 -1583.666)" fill="#292426"/>
    <path id="Path_238" data-name="Path 238" d="M-321.508,1762.142c-.019.229-.258.225-.377.349-.087.09-.112-.011-.145-.066q-.312-.531-.622-1.066c-.019-.033-.071-.082-.032-.109.149-.1.307-.191.472-.29a.742.742,0,0,1,.064.08q.317.542.632,1.084S-321.507,1762.135-321.508,1762.142Z" transform="translate(334.576 -1744.569)" fill="#292426"/>
    <path id="Path_239" data-name="Path 239" d="M-287.842,1728.536c-.068.137-.139.289-.218.435-.029.055-.071.016-.106,0l-.923-.531c-.037-.021-.078-.043-.049-.095.079-.139.161-.277.241-.413.034-.059.076-.023.107-.006.3.173.6.349.9.523A.069.069,0,0,1-287.842,1728.536Z" transform="translate(303.006 -1713.456)" fill="#292426"/>
  </g>
</svg>
