<svg id="Group_148" data-name="Group 148" xmlns="http://www.w3.org/2000/svg" xmlns:xlink="http://www.w3.org/1999/xlink" width="25.503" height="21.667" viewBox="0 0 25.503 21.667">
  <defs>
    <clipPath id="clip-path">
      <rect id="Rectangle_77" data-name="Rectangle 77" width="25.504" height="21.667" fill="#018a83"/>
    </clipPath>
  </defs>
  <g id="Group_147" data-name="Group 147" clip-path="url(#clip-path)">
    <path id="Path_129" data-name="Path 129" d="M324.135,195.346a5.314,5.314,0,0,0-.265.629,2.035,2.035,0,0,1-1.7,1.141c-1.158.051-2.32.013-3.495.013a4.921,4.921,0,0,0,.123-1.508q0-3.155,0-6.31a6.164,6.164,0,0,0-.263-1.966c-.024-.072-.09-.173.067-.169a16.165,16.165,0,0,1,2.509.072,3.644,3.644,0,0,1,2.98,3.128c0,.033.005.066.042.081Z" transform="translate(-298.631 -175.485)" fill="#018a83"/>
    <path id="Path_130" data-name="Path 130" d="M115.292,168.445h-5.054c-.615,0-.883-.264-.883-.873,0-2.494-.014-4.989.01-7.483a3.638,3.638,0,0,1,3.511-3.518q2.364-.037,4.73,0a3.631,3.631,0,0,1,3.6,3.607c.024,2.5.009,5.006.006,7.508a.721.721,0,0,1-.793.761q-2.564,0-5.129,0" transform="translate(-102.529 -146.784)" fill="#018a83"/>
    <path id="Path_131" data-name="Path 131" d="M137.95,0a4.433,4.433,0,1,1-4.442,4.4A4.441,4.441,0,0,1,137.95,0" transform="translate(-125.179 0.001)" fill="#018a83"/>
    <path id="Path_132" data-name="Path 132" d="M5.472,197.276c-1.139,0-2.242.027-3.344-.007a2.177,2.177,0,0,1-2.116-2.229c-.014-1.363-.019-2.726,0-4.088a3.684,3.684,0,0,1,3.71-3.64c.58-.012,1.161,0,1.741-.006.173,0,.189.045.137.2a5.554,5.554,0,0,0-.257,1.791q0,3.428,0,6.855a3.849,3.849,0,0,0,.128,1.126" transform="translate(0 -175.619)" fill="#018a83"/>
    <path id="Path_133" data-name="Path 133" d="M33.444,69.618A3.307,3.307,0,1,1,30.2,66.284a3.331,3.331,0,0,1,3.249,3.334" transform="translate(-25.155 -62.148)" fill="#018a83"/>
    <path id="Path_134" data-name="Path 134" d="M282.668,69.573a3.307,3.307,0,1,1-3.338-3.3,3.326,3.326,0,0,1,3.338,3.3" transform="translate(-258.83 -62.138)" fill="#018a83"/>
  </g>
</svg>
