<svg xmlns="http://www.w3.org/2000/svg" xmlns:xlink="http://www.w3.org/1999/xlink" width="23.505" height="23.656" viewBox="0 0 23.505 23.656">
  <defs>
    <clipPath id="clip-path">
      <rect id="Rectangle_78" data-name="Rectangle 78" width="23.505" height="23.656" fill="#fff"/>
    </clipPath>
  </defs>
  <g id="Group_152" data-name="Group 152" transform="translate(0 0)">
    <g id="Group_151" data-name="Group 151" transform="translate(0 0)" clip-path="url(#clip-path)">
      <path id="Path_135" data-name="Path 135" d="M23.392,12.676A3.737,3.737,0,0,0,21.432,9.6a5.482,5.482,0,0,0-2.241-.568c-.29-.028-.284-.019-.235-.318a7.981,7.981,0,0,0,.151-1.556c-.015-.562-.043-1.123-.1-1.679a5.875,5.875,0,0,0-1.775-3.735,6.258,6.258,0,0,0-2.9-1.586A9.96,9.96,0,0,0,13.132,0H6.808a2.923,2.923,0,0,1-.593.022A3.782,3.782,0,0,0,5.6.052a6.169,6.169,0,0,0-4.053,2.21A6.667,6.667,0,0,0,.009,6.611C-.007,9.7,0,12.781.006,15.864a16.737,16.737,0,0,0,.142,2.114,6.829,6.829,0,0,0,.79,2.562,6.021,6.021,0,0,0,4.019,2.889,9.245,9.245,0,0,0,2.2.225c2.991,0,5.982,0,8.975,0a7.923,7.923,0,0,0,2.846-.475,6.547,6.547,0,0,0,3.787-3.571,8.565,8.565,0,0,0,.719-3.247,26.711,26.711,0,0,0-.09-3.685M7.345,4.809c.454-.028.907-.012,1.361-.015,1.154,0,2.306-.006,3.46,0A2.076,2.076,0,0,1,14.145,7.6,1.807,1.807,0,0,1,12.57,8.815c-.9.1-1.8.012-2.537.043-.926,0-1.694,0-2.463,0a2.036,2.036,0,0,1-2.086-1.84A2.014,2.014,0,0,1,7.345,4.809m11.13,11.6a1.936,1.936,0,0,1-1.318,1.63,2.341,2.341,0,0,1-.861.123H11.7c-1.531,0-3.062,0-4.593,0a2.061,2.061,0,0,1-1.769-.818,2.019,2.019,0,0,1,1.4-3.222c.222-.022.448-.025.67-.025q4.431,0,8.861,0a2.239,2.239,0,0,1,1.235.293,1.947,1.947,0,0,1,.963,2.015" transform="translate(0 0)" fill="#fff"/>
    </g>
  </g>
</svg>
