<svg id="Group_360" data-name="Group 360" xmlns="http://www.w3.org/2000/svg" width="13.406" height="13.438" viewBox="0 0 13.406 13.438">
  <path id="Path_205" data-name="Path 205" d="M111.594,0h.341a1.066,1.066,0,0,1,.705.326,1.066,1.066,0,0,1,.231.392,2.927,2.927,0,0,1,.148.863,10.647,10.647,0,0,1-.188,2.112c-.047.272-.1.542-.153.812-.035.182-.036.182.143.182.838,0,1.676,0,2.514,0a1.7,1.7,0,0,1,.926.231A1.418,1.418,0,0,1,116.8,6.7c-.017.036-.033.072-.052.106a.107.107,0,0,0,.038.156,1.5,1.5,0,0,1,.406.474,1.453,1.453,0,0,1-.346,1.75c-.141.11-.136.115-.058.278a1.409,1.409,0,0,1-.489,1.786.156.156,0,0,0-.067.233,1.426,1.426,0,0,1-.786,1.9c-.1.04-.214.026-.318.057H111.7c-.043-.028-.091-.007-.137-.014h-.122c-.053.007-.109-.015-.16.014h-.262c-.193-.032-.389-.021-.584-.038a11.822,11.822,0,0,1-2.019-.367c-.253-.068-.5-.141-.753-.225-.186-.063-.191-.07-.191-.272q0-2.716,0-5.432c0-.472,0-.945,0-1.417a.33.33,0,0,1,.141-.29,10.5,10.5,0,0,0,1.175-1.022,5.308,5.308,0,0,0,.882-1.135,6.44,6.44,0,0,0,.317-.762c.211-.551.417-1.1.633-1.654a1.46,1.46,0,0,1,.527-.671A1,1,0,0,1,111.594,0" transform="translate(-103.941)" fill="#a9aaae"/>
  <path id="Path_206" data-name="Path 206" d="M0,186.177q0-.636,0-1.272,0-2.348,0-4.7A.45.45,0,0,0,0,180.156a.372.372,0,0,1,.37-.307c.772,0,1.544,0,2.316,0,.085,0,.088.038.087.1,0,.4,0,.8,0,1.206q0,2.589,0,5.178c0,.114-.021.155-.147.154-.728-.007-1.457,0-2.185,0A.393.393,0,0,1,0,186.177" transform="translate(0 -173.942)" fill="#a9aaae"/>
</svg>
