<svg xmlns="http://www.w3.org/2000/svg" width="14.042" height="16.427" viewBox="0 0 14.042 16.427">
  <g id="Group_382" data-name="Group 382" transform="translate(-0.014 0.04)">
    <path id="Path_229" data-name="Path 229" d="M-509.909,1490.532a7.017,7.017,0,0,0-1.181-2.773,6.958,6.958,0,0,0-2.436-2.134,6.655,6.655,0,0,0-2.015-.7c-.124-.021-.18-.062-.171-.2.015-.256.008-.513,0-.77,0-.09.022-.119.115-.118.3.005.61,0,.914,0a.3.3,0,0,0,.349-.341c0-.225,0-.449,0-.674a.381.381,0,0,0-.207-.395h-4.747a.393.393,0,0,0-.208.41c.007.208,0,.417,0,.625,0,.274.1.373.382.374.359,0,.716,0,1.074,0,.09,0,.119.025.117.116a6.77,6.77,0,0,0,0,.721c.015.18-.054.23-.217.26a6.568,6.568,0,0,0-3.137,1.468,6.889,6.889,0,0,0-2.507,6.31,6.649,6.649,0,0,0,1.782,3.857,7,7,0,0,0,7.832,1.765A7.039,7.039,0,0,0-509.909,1490.532Zm-6.911,6.959a5.639,5.639,0,0,1-4-1.654,5.64,5.64,0,0,1-1.65-4.006,5.664,5.664,0,0,1,5.662-5.672,5.66,5.66,0,0,1,5.66,5.672,5.64,5.64,0,0,1-1.655,4.011A5.639,5.639,0,0,1-516.821,1497.491Z" transform="translate(523.84 -1482.47)" fill="#a9aaae"/>
    <path id="Path_230" data-name="Path 230" d="M-512.234,1535.882a1.424,1.424,0,0,1,1.017.394c.056.052.064.077,0,.135q-1,.921-2,1.849c-.045.045-.07.054-.122,0a1.458,1.458,0,0,1,.7-2.309A1.344,1.344,0,0,1-512.234,1535.882Z" transform="translate(514.137 -1533.521)" fill="#a9aaae"/>
    <path id="Path_231" data-name="Path 231" d="M-364.819,1583.636c0,.13-.068.1-.138.1h-2.389c-.8,0-1.6,0-2.4,0-.119,0-.149-.026-.148-.147q.007-2.4,0-4.794c0-.1.011-.144.135-.139a5,5,0,0,1,4.068,2.226A4.864,4.864,0,0,1-364.819,1583.636Z" transform="translate(376.828 -1574.379)" fill="#a9aaae"/>
    <path id="Path_232" data-name="Path 232" d="M-473.318,1676.858c0,.076-.009.113-.1.112-.438,0-.876,0-1.315,0-.077,0-.1-.022-.1-.1,0-.31,0-.62,0-.93,0-.09.029-.106.11-.1.219,0,.438,0,.657,0s.428,0,.641,0c.086,0,.107.026.106.108C-473.322,1676.249-473.321,1676.554-473.318,1676.858Z" transform="translate(477.046 -1667.19)" fill="#a9aaae"/>
    <path id="Path_233" data-name="Path 233" d="M-368.972,1768.28c0,.086-.026.108-.109.106-.23-.005-.459,0-.689,0-.078,0-.113-.011-.111-.1,0-.433,0-.865,0-1.3,0-.082.02-.112.106-.109.23.006.46.007.689,0,.1,0,.115.037.113.122,0,.219,0,.438,0,.657S-368.978,1768.072-368.972,1768.28Z" transform="translate(376.81 -1754.14)" fill="#a9aaae"/>
    <path id="Path_234" data-name="Path 234" d="M-460.005,1728.164c0,.058-.041.064-.066.079-.276.162-.553.32-.829.481-.055.032-.084.034-.124-.029-.2-.308-.2-.307.106-.487.2-.117.4-.235.609-.351.03-.017.073-.062.093-.033C-460.136,1727.937-460.07,1728.058-460.005,1728.164Z" transform="translate(463.994 -1716.833)" fill="#a9aaae"/>
    <path id="Path_235" data-name="Path 235" d="M-460.434,1629.452c-.068.111-.135.231-.215.345-.019.027-.057-.011-.083-.026-.277-.159-.552-.321-.83-.478-.057-.032-.073-.053-.04-.119.168-.331.166-.333.49-.145l.594.344C-460.487,1629.391-460.447,1629.4-460.434,1629.452Z" transform="translate(464.426 -1622.363)" fill="#a9aaae"/>
    <path id="Path_236" data-name="Path 236" d="M-421.1,1761.586l-.539.913a.035.035,0,0,1-.024.019.036.036,0,0,1-.03-.006l-.041-.024c-.323-.164-.323-.164-.142-.475.118-.2.239-.4.351-.607.041-.076.077-.081.143-.036s.155.093.233.138C-421.122,1761.524-421.089,1761.536-421.1,1761.586Z" transform="translate(426.587 -1748.853)" fill="#a9aaae"/>
    <path id="Path_237" data-name="Path 237" d="M-421.622,1590.892c-.019.054-.07.065-.11.09-.27.16-.27.159-.424-.107-.124-.212-.245-.424-.372-.633-.037-.062-.038-.09.031-.135.3-.2.3-.2.483.113l.346.593C-421.651,1590.837-421.637,1590.865-421.622,1590.892Z" transform="translate(427.115 -1585.18)" fill="#a9aaae"/>
    <path id="Path_238" data-name="Path 238" d="M-321.792,1761.86c-.015.175-.2.171-.287.266-.066.069-.085-.009-.11-.05q-.238-.4-.473-.812c-.014-.025-.054-.062-.025-.083.114-.077.234-.145.359-.221a.553.553,0,0,1,.048.061l.482.826S-321.791,1761.855-321.792,1761.86Z" transform="translate(331.746 -1748.489)" fill="#a9aaae"/>
    <path id="Path_239" data-name="Path 239" d="M-288.154,1728.384c-.052.1-.106.22-.166.332-.022.042-.054.012-.081,0l-.7-.4c-.028-.016-.06-.033-.037-.072.06-.106.123-.211.183-.314.026-.045.057-.018.081,0,.23.132.459.265.688.4A.052.052,0,0,1-288.154,1728.384Z" transform="translate(299.704 -1716.91)" fill="#a9aaae"/>
  </g>
</svg>
