<svg xmlns="http://www.w3.org/2000/svg" xmlns:xlink="http://www.w3.org/1999/xlink" width="29.28" height="18.911" viewBox="0 0 29.28 18.911">
  <defs>
    <clipPath id="clip-path">
      <rect id="Rectangle_176" data-name="Rectangle 176" width="29.28" height="18.911" fill="#1853a1"/>
    </clipPath>
  </defs>
  <g id="Group_312" data-name="Group 312" clip-path="url(#clip-path)">
    <path id="Path_195" data-name="Path 195" d="M29.124,8.7a4.309,4.309,0,0,0-.867-1.16A25.091,25.091,0,0,0,20.843,1.6,14.017,14.017,0,0,0,15.521.034a12.579,12.579,0,0,0-6,1.08,24.44,24.44,0,0,0-9.1,7.173,1.855,1.855,0,0,0,.038,2.4,26.1,26.1,0,0,0,7.929,6.6,13.69,13.69,0,0,0,5.456,1.6,13.257,13.257,0,0,0,7.007-1.56,23.3,23.3,0,0,0,5.971-4.445A9.97,9.97,0,0,0,29.28,9.857V9.114c-.052-.137-.1-.275-.156-.41M14.644,15.762A6.3,6.3,0,1,1,20.95,9.478a6.3,6.3,0,0,1-6.306,6.284" transform="translate(0 -0.001)" fill="#1853a1"/>
    <path id="Path_196" data-name="Path 196" d="M141.809,69.327a4.507,4.507,0,1,1-4.5-4.512,4.519,4.519,0,0,1,4.5,4.512" transform="translate(-122.652 -59.866)" fill="#1853a1"/>
  </g>
</svg>
