<svg xmlns="http://www.w3.org/2000/svg" xmlns:xlink="http://www.w3.org/1999/xlink" width="89.902" height="90.477" viewBox="0 0 89.902 90.477">
  <defs>
    <clipPath id="clip-path">
      <rect id="Rectangle_49" data-name="Rectangle 49" width="89.902" height="90.477" fill="#018a83"/>
    </clipPath>
  </defs>
  <g id="Group_104" data-name="Group 104" transform="translate(0 0)">
    <g id="Group_103" data-name="Group 103" transform="translate(0 0)" clip-path="url(#clip-path)">
      <path id="Path_87" data-name="Path 87" d="M89.468,48.483c-.531-5.159-2.869-9.208-7.5-11.77a20.966,20.966,0,0,0-8.57-2.172c-1.11-.106-1.086-.071-.9-1.216a30.524,30.524,0,0,0,.578-5.95c-.059-2.149-.165-4.3-.366-6.422A22.47,22.47,0,0,0,65.929,6.67,23.936,23.936,0,0,0,54.832.6a38.1,38.1,0,0,0-4.6-.6H26.04a11.178,11.178,0,0,1-2.267.083A14.465,14.465,0,0,0,21.4.2,23.594,23.594,0,0,0,5.9,8.653,25.5,25.5,0,0,0,.033,25.286C-.026,37.091.009,48.885.021,60.678a64.016,64.016,0,0,0,.543,8.086,26.121,26.121,0,0,0,3.022,9.8c3.423,6.021,8.759,9.42,15.37,11.05a35.361,35.361,0,0,0,8.405.862c11.439.012,22.878-.012,34.329,0a30.3,30.3,0,0,0,10.884-1.818A25.04,25.04,0,0,0,87.06,75,32.761,32.761,0,0,0,89.81,62.578a102.162,102.162,0,0,0-.342-14.1M28.094,18.392c1.735-.106,3.471-.047,5.206-.059,4.415,0,8.818-.024,13.233-.012A7.94,7.94,0,0,1,54.1,29.076a6.911,6.911,0,0,1-6.021,4.639c-3.423.4-6.871.047-9.7.165-3.542,0-6.481.012-9.42-.012a7.786,7.786,0,0,1-7.98-7.036,7.7,7.7,0,0,1,7.118-8.441M70.663,62.756a7.4,7.4,0,0,1-5.041,6.233,8.955,8.955,0,0,1-3.294.472H44.762c-5.855,0-11.711-.012-17.566.012a7.881,7.881,0,0,1-6.764-3.128A7.721,7.721,0,0,1,25.8,54.02c.85-.083,1.712-.094,2.562-.094q16.946-.018,33.892,0a8.562,8.562,0,0,1,4.722,1.121,7.447,7.447,0,0,1,3.683,7.709" transform="translate(0 0)" fill="#018a83"/>
    </g>
  </g>
</svg>
