<svg xmlns="http://www.w3.org/2000/svg" xmlns:xlink="http://www.w3.org/1999/xlink" width="109.234" height="92.799" viewBox="0 0 109.234 92.799">
  <defs>
    <clipPath id="clip-path">
      <rect id="Rectangle_32" data-name="Rectangle 32" width="109.234" height="92.799" fill="#2fb4c2"/>
    </clipPath>
  </defs>
  <g id="Group_92" data-name="Group 92" clip-path="url(#clip-path)">
    <path id="Path_70" data-name="Path 70" d="M342.626,222.213c-.6.8-.639,1.831-1.133,2.695-1.632,2.854-4.03,4.742-7.283,4.885-4.96.218-9.937.057-14.967.057a21.066,21.066,0,0,0,.526-6.461q.007-13.513.007-27.026a26.4,26.4,0,0,0-1.126-8.421c-.1-.307-.385-.739.289-.722,3.583.092,7.194-.342,10.746.307a15.608,15.608,0,0,1,12.763,13.4c.02.141.022.282.178.348Z" transform="translate(-233.392 -137.148)" fill="#2fb4c2"/>
    <path id="Path_71" data-name="Path 71" d="M134.8,207.494q-10.823,0-21.646,0c-2.636,0-3.783-1.131-3.782-3.737,0-10.684-.061-21.368.042-32.051a15.58,15.58,0,0,1,15.037-15.069q10.127-.159,20.259-.013a15.553,15.553,0,0,1,15.425,15.449c.1,10.719.038,21.439.027,32.158a3.086,3.086,0,0,1-3.4,3.26q-10.983.018-21.966,0" transform="translate(-80.13 -114.717)" fill="#2fb4c2"/>
    <path id="Path_72" data-name="Path 72" d="M152.535,0a18.988,18.988,0,1,1-19.026,18.825A19.019,19.019,0,0,1,152.535,0" transform="translate(-97.832 0)" fill="#2fb4c2"/>
    <path id="Path_73" data-name="Path 73" d="M23.437,230.01c-4.878,0-9.6.115-14.321-.031a9.325,9.325,0,0,1-9.064-9.548c-.059-5.836-.08-11.674.006-17.51.128-8.729,6.974-15.409,15.891-15.592,2.485-.051,4.973.015,7.459-.024.742-.011.808.192.586.848a23.787,23.787,0,0,0-1.1,7.671q0,14.681-.005,29.362a16.484,16.484,0,0,0,.549,4.824" transform="translate(0 -137.253)" fill="#2fb4c2"/>
    <path id="Path_74" data-name="Path 74" d="M55.161,80.565A14.164,14.164,0,1,1,41.246,66.286,14.269,14.269,0,0,1,55.161,80.565" transform="translate(-19.66 -48.571)" fill="#2fb4c2"/>
    <path id="Path_75" data-name="Path 75" d="M304.386,80.407a14.166,14.166,0,1,1-14.3-14.134,14.245,14.245,0,0,1,14.3,14.134" transform="translate(-202.286 -48.563)" fill="#2fb4c2"/>
  </g>
</svg>
