<svg xmlns="http://www.w3.org/2000/svg" width="107.877" height="99.385" viewBox="0 0 107.877 99.385">
  <g id="Group_141" data-name="Group 141" transform="translate(-797 -447)">
    <path id="Path_88" data-name="Path 88" d="M135.365,301.328q0-48.634-.022-97.268c0-1.7.2-2.106,1.076-2.1q14.743.1,29.485,0c.876-.006,1.077.4,1.076,2.1q-.045,48.634-.022,97.268Z" transform="translate(699.775 245.04)" fill="#a2cf68"/>
    <path id="Path_89" data-name="Path 89" d="M269.975,301.724q0-26.663-.022-53.326c0-1.25.2-1.546,1.076-1.541q14.848.076,29.7,0c.876,0,1.078.292,1.076,1.541q-.049,26.663-.022,53.326Z" transform="translate(603.076 244.644)" fill="#a2cf68"/>
    <path id="Path_91" data-name="Path 91" d="M.018,291.782c10.25,0,20.5.017,30.749-.03.875,0,1.081.273,1.077,1.46-.038,11.134-.023,22.268-.023,33.4-10.356,0-20.711-.01-31.066.023-.628,0-.757-.171-.755-1.023Q.04,308.7.018,291.782" transform="translate(797 219.748)" fill="#a2cf68"/>
  </g>
</svg>
