<svg id="Group_160" data-name="Group 160" xmlns="http://www.w3.org/2000/svg" xmlns:xlink="http://www.w3.org/1999/xlink" width="21.421" height="25.637" viewBox="0 0 21.421 25.637">
  <defs>
    <clipPath id="clip-path">
      <rect id="Rectangle_81" data-name="Rectangle 81" width="21.421" height="25.637" fill="#018a83"/>
    </clipPath>
  </defs>
  <g id="Group_159" data-name="Group 159" clip-path="url(#clip-path)">
    <path id="Path_151" data-name="Path 151" d="M76.211,0c.264.1.55.079.82.153A6.053,6.053,0,0,1,81.693,4.98,6.185,6.185,0,1,1,73.946.224c.332-.093.674-.15,1.011-.224Z" transform="translate(-65.078)" fill="#018a83"/>
    <path id="Path_152" data-name="Path 152" d="M10.713,210.662H4.594a4.785,4.785,0,0,1-2.885-.826,3.8,3.8,0,0,1-1.654-2.849,13.338,13.338,0,0,1,.865-6.18A5.231,5.231,0,0,1,3.3,197.973a5.024,5.024,0,0,1,2.336-.563,1.58,1.58,0,0,1,.812.3c.58.344,1.115.764,1.728,1.053a5.694,5.694,0,0,0,5.744-.377c.3-.189.615-.372.9-.586a2.13,2.13,0,0,1,1.663-.346,4.764,4.764,0,0,1,3.672,2.629,11.19,11.19,0,0,1,1.167,4.155,16.981,16.981,0,0,1,.1,2.223,4.126,4.126,0,0,1-3.835,4.159,8.461,8.461,0,0,1-.875.043H10.713" transform="translate(0.001 -185.026)" fill="#018a83"/>
  </g>
</svg>
