<svg id="Group_100" data-name="Group 100" xmlns="http://www.w3.org/2000/svg" xmlns:xlink="http://www.w3.org/1999/xlink" width="81.562" height="99.645" viewBox="0 0 81.562 99.645">
  <defs>
    <clipPath id="clip-path">
      <rect id="Rectangle_47" data-name="Rectangle 47" width="81.562" height="99.645" fill="#ee5656"/>
    </clipPath>
  </defs>
  <g id="Group_99" data-name="Group 99" clip-path="url(#clip-path)">
    <path id="Path_77" data-name="Path 77" d="M95.238,0c1.007.383,2.1.306,3.124.593,9.57,2.672,15.673,8.873,17.747,18.764a23.877,23.877,0,0,1-16.171,27.6,23.433,23.433,0,0,1-30.02-18.194A23.938,23.938,0,0,1,86.611.872C87.875.509,89.178.287,90.462,0Z" transform="translate(-52.849)" fill="#ee5656"/>
    <path id="Path_78" data-name="Path 78" d="M40.793,248.918q-11.65,0-23.3,0a17.95,17.95,0,0,1-10.983-3.211,14.817,14.817,0,0,1-6.3-11.072,52.83,52.83,0,0,1,3.294-24.022c1.82-4.622,4.557-8.594,9.045-11.015a18.813,18.813,0,0,1,8.895-2.188,5.939,5.939,0,0,1,3.091,1.155c2.21,1.338,4.244,2.97,6.581,4.094,7.555,3.636,14.837,2.977,21.87-1.464,1.161-.733,2.341-1.447,3.435-2.276a7.98,7.98,0,0,1,6.334-1.347c6.417.932,10.945,4.5,13.981,10.22,2.678,5.042,3.821,10.521,4.445,16.15a67.362,67.362,0,0,1,.366,8.642c-.156,8.76-6.038,15.257-14.6,16.166a31.58,31.58,0,0,1-3.333.166q-11.411,0-22.821,0" transform="translate(0 -149.274)" fill="#ee5656"/>
  </g>
</svg>
