<svg xmlns="http://www.w3.org/2000/svg" width="23.016" height="21.246" viewBox="0 0 23.016 21.246">
  <g id="Icon_ionic-ios-calendar" data-name="Icon ionic-ios-calendar" transform="translate(-3.375 -4.5)">
    <path id="Path_180" data-name="Path 180" d="M24.178,6.75H21.965V8.078a.444.444,0,0,1-.443.443h-.885a.444.444,0,0,1-.443-.443V6.75H9.572V8.078a.444.444,0,0,1-.443.443H8.244A.444.444,0,0,1,7.8,8.078V6.75H5.588A2.22,2.22,0,0,0,3.375,8.963V24.012a2.22,2.22,0,0,0,2.213,2.213h18.59a2.22,2.22,0,0,0,2.213-2.213V8.963A2.22,2.22,0,0,0,24.178,6.75Zm.443,16.6a1.11,1.11,0,0,1-1.107,1.107H6.252a1.11,1.11,0,0,1-1.107-1.107V13.389a.444.444,0,0,1,.443-.443h18.59a.444.444,0,0,1,.443.443Z" transform="translate(0 -0.48)" fill="#a9aaae"/>
    <path id="Path_181" data-name="Path 181" d="M10.77,4.943a.444.444,0,0,0-.443-.443H9.443A.444.444,0,0,0,9,4.943V6.27h1.77Z" transform="translate(-1.199 0)" fill="#a9aaae"/>
    <path id="Path_182" data-name="Path 182" d="M26.52,4.943a.444.444,0,0,0-.443-.443h-.885a.444.444,0,0,0-.443.443V6.27h1.77Z" transform="translate(-4.556 0)" fill="#a9aaae"/>
  </g>
</svg>
