<svg id="Group_641" data-name="Group 641" xmlns="http://www.w3.org/2000/svg" xmlns:xlink="http://www.w3.org/1999/xlink" width="80.443" height="80.263" viewBox="0 0 80.443 80.263">
  <defs>
    <clipPath id="clip-path">
      <rect id="Rectangle_268" data-name="Rectangle 268" width="80.443" height="80.263" fill="none"/>
    </clipPath>
  </defs>
  <g id="Group_556" data-name="Group 556" clip-path="url(#clip-path)">
    <path id="Path_254" data-name="Path 254" d="M56.25,51.537q-.029,2.074,0,4.15c.006.342-.092.446-.438.44q-2.08-.027-4.16,0c-.344.006-.448-.09-.442-.438q.027-2.074,0-4.15c0-.342.09-.454.438-.442.707.026,1.414.008,2.119.008.681,0,1.363.018,2.043-.006.342-.014.446.09.442.438" transform="translate(-41.152 -41.061)"/>
    <path id="Path_255" data-name="Path 255" d="M25.142.024Q12.873.024.6.01c-.491,0-.6.112-.6.6Q.026,12.851.012,25.1q12.173,0,24.345.016c.652,0,.8-.149.8-.8-.026-8.1-.016-16.193-.016-24.288M20.128,19.453c0,.511-.128.642-.64.64q-6.911-.032-13.82,0c-.511,0-.648-.128-.642-.64.029-2.3.014-4.6.014-6.893s.016-4.6-.014-6.893c-.006-.511.13-.642.642-.64q6.908.029,13.818,0c.513,0,.644.128.642.64q-.032,6.893,0,13.787" transform="translate(0 -0.008)"/>
    <path id="Path_256" data-name="Path 256" d="M337.743,51.59c-.026.678-.008,1.357-.008,2.037,0,.652-.014,1.306.006,1.958.01.359-.024.562-.489.55-1.361-.035-2.722-.027-4.083,0-.395.008-.473-.132-.467-.491.02-1.357.022-2.716,0-4.073-.006-.393.132-.471.493-.467,1.361.02,2.722.024,4.081,0,.395-.008.483.13.469.491" transform="translate(-267.359 -41.063)"/>
    <path id="Path_257" data-name="Path 257" d="M306.642.642c0-.536-.106-.644-.644-.642q-12.249.032-24.5.016c0,8.1.008,16.191-.018,24.288,0,.65.151.8.8.8q12.173-.035,24.343-.016,0-12.223.016-24.445m-5.03,18.8c0,.513-.13.642-.64.64q-6.911-.032-13.82,0c-.513,0-.644-.13-.64-.64q.029-6.893,0-13.787c0-.513.13-.648.64-.64,2.329.027,4.658.012,6.99.012,2.276,0,4.554.016,6.831-.012.513-.008.642.13.64.64q-.029,6.893,0,13.787" transform="translate(-226.199 0)"/>
    <path id="Path_258" data-name="Path 258" d="M56.251,336.551c.012.348-.1.442-.444.438q-2.08-.027-4.16,0c-.348.006-.442-.1-.438-.442q.027-2.074,0-4.15c-.006-.348.1-.442.442-.438q2.08.027,4.16,0c.348,0,.45.1.438.442-.024.705-.006,1.41-.006,2.115,0,.678-.02,1.357.008,2.035" transform="translate(-41.152 -266.764)"/>
    <path id="Path_259" data-name="Path 259" d="M25.206,281.651c0-.652-.151-.8-.8-.8-8.113.026-16.228.018-24.343.018v25.072c8.115,0,16.23-.01,24.343.016.652,0,.807-.149.8-.8q-.038-11.754,0-23.5m-5.041,11.831c0,2.272-.018,4.545.012,6.815.008.513-.132.642-.642.64q-6.908-.032-13.818,0c-.515,0-.644-.132-.642-.64q.032-6.893,0-13.789c0-.511.132-.64.642-.638q6.911.029,13.82,0c.513,0,.646.13.64.64-.027,2.323-.012,4.647-.012,6.972" transform="translate(-0.048 -225.693)"/>
    <path id="Path_260" data-name="Path 260" d="M306.65,158.238c-1.492,0-2.984.017-4.475-.01-.444-.008-.572.116-.561.56.029,1.3-.008,2.611.021,3.916.01.444-.119.56-.561.559q-9.5-.022-19,0c-.438,0-.575-.108-.564-.556q.045-1.957,0-3.916c-.01-.44.11-.573.559-.563,1.308.03,2.617-.008,3.925.021.442.01.573-.112.563-.558-.03-1.3.008-2.611-.021-3.916-.01-.442.114-.571.56-.561q1.962.044,3.925,0c.444-.01.572.116.562.56-.029,1.3.008,2.611-.021,3.916-.01.444.118.57.562.56q1.962-.044,3.925,0c.446.01.57-.119.56-.561-.029-1.279.016-2.559-.023-3.837-.016-.517.135-.643.644-.638,3.14.024,6.281.012,9.421.012Z" transform="translate(-226.222 -123.122)"/>
    <path id="Path_261" data-name="Path 261" d="M.064,153.218c1.465,0,2.931.023,4.4-.013.512-.013.647.128.642.64-.026,2.924,0,5.848-.025,8.772,0,.508.123.658.64.642,1.281-.039,2.565.006,3.846-.023.443-.01.572.114.562.559q-.044,1.957,0,3.916c.01.442-.115.571-.561.561-1.308-.029-2.617.008-3.925-.021-.444-.01-.571.116-.561.56.029,1.3-.008,2.611.021,3.916.01.444-.119.567-.562.559-1.491-.027-2.983-.01-4.475-.01Z" transform="translate(-0.051 -123.116)"/>
    <path id="Path_262" data-name="Path 262" d="M214.8.078c0,1.488-.017,2.977.01,4.465.008.443-.118.563-.561.56q-4.475-.029-8.951,0c-.443,0-.569-.116-.561-.56.027-1.488.01-2.977.01-4.465Z" transform="translate(-164.529 -0.063)"/>
    <path id="Path_263" data-name="Path 263" d="M368.335,234.834c-3.141,0-6.281-.012-9.422.012-.511,0-.659-.126-.643-.64q.059-1.878,0-3.759c-.016-.514.132-.644.643-.64,3.141.025,6.281.012,9.422.012Z" transform="translate(-287.907 -184.675)"/>
    <path id="Path_264" data-name="Path 264" d="M368.335,388.029c-3.141,0-6.281-.012-9.422.012-.511,0-.659-.126-.643-.64q.059-1.878,0-3.759c-.016-.514.132-.644.643-.64,3.141.025,6.281.012,9.422.012Z" transform="translate(-287.907 -307.783)"/>
    <path id="Path_265" data-name="Path 265" d="M388.912,285.906c-1.492,0-2.984-.017-4.475.01-.444.008-.572-.116-.562-.56q.044-1.957,0-3.916c-.01-.444.118-.568.562-.56,1.491.027,2.983.01,4.475.01Z" transform="translate(-308.484 -225.718)"/>
    <path id="Path_266" data-name="Path 266" d="M163.605,293.412c0-2.3-.016-4.6.012-6.893.006-.509-.125-.647-.64-.642-2.931.026-5.862,0-8.793.025-.51,0-.659-.124-.644-.639.039-1.278.032-2.559,0-3.838-.01-.443.117-.561.561-.56q6.988.024,13.975,0c.55,0,.56.226.559.641-.011,4.569.005,9.139-.021,13.709,0,.58.128.732.72.724,2.9-.035,5.81,0,8.715-.028.508,0,.661.12.645.638q-.06,1.878,0,3.759c.016.51-.125.647-.64.642-2.931-.026-5.862,0-8.793-.025-.51,0-.659.124-.643.639.039,1.278-.006,2.559.023,3.838.01.443-.117.561-.561.56q-6.988-.024-13.975,0c-.441,0-.573-.113-.563-.558.03-1.279.036-2.559,0-3.838-.015-.512.128-.645.641-.641,2.931.026,5.862,0,8.793.025.512,0,.649-.128.642-.64-.029-2.3-.013-4.6-.013-6.893" transform="translate(-123.385 -225.7)"/>
    <path id="Path_267" data-name="Path 267" d="M96.9,173.274c-1.492,0-2.984-.017-4.475.01-.443.008-.572-.114-.562-.559.03-1.3-.008-2.611.021-3.916.01-.443-.117-.563-.561-.56q-4.475.029-8.95,0c-.442,0-.572.114-.562.559.029,1.3-.008,2.611.021,3.916.01.443-.116.57-.561.56q-1.962-.044-3.925,0c-.445.01-.564-.118-.561-.56q.029-4.464,0-8.929c0-.441.115-.571.56-.561,1.282.03,2.565-.015,3.846.023.514.015.646-.129.642-.64-.026-2.924,0-5.848-.025-8.773,0-.509.125-.657.641-.641q1.882.059,3.767,0c.514-.016.647.129.642.64-.026,2.924,0,5.848-.025,8.772,0,.509.126.646.64.641,2.931-.026,5.862,0,8.793-.025.509,0,.66.122.644.638-.039,1.278.006,2.559-.023,3.837-.01.442.114.571.56.561,1.308-.029,2.617.008,3.925-.021.444-.01.572.115.562.559q-.044,1.957,0,3.916c.01.443-.117.568-.561.56-1.491-.027-2.983-.01-4.475-.01" transform="translate(-61.705 -123.114)"/>
    <path id="Path_268" data-name="Path 268" d="M158.556,35.57c-1.465,0-2.931-.017-4.4.01-.456.009-.625-.07-.62-.583.029-2.95.023-5.9,0-8.851,0-.452.065-.637.583-.62,1.281.043,2.565.047,3.846,0,.56-.021.627.2.616.666-.028,1.174.029,2.351-.025,3.524-.03.653.1.867.825.861,4.5-.042,9-.011,13.5-.033.574,0,.818.086.783.74-.063,1.171-.047,2.35-.005,3.523.02.576-.089.815-.743.78-1.174-.062-2.355.012-3.532-.03-.579-.021-.814.091-.782.742.061,1.224,0,2.454.028,3.68.011.454-.067.637-.584.619-1.281-.043-2.565-.047-3.846,0-.561.021-.626-.2-.616-.667.028-1.227-.018-2.455.022-3.681.017-.527-.091-.716-.667-.7-1.464.046-2.93.015-4.4.015" transform="translate(-123.385 -20.512)"/>
    <path id="Path_269" data-name="Path 269" d="M163.527,137.7c-3.114,0-6.229-.012-9.343.012-.511,0-.658-.126-.642-.64q.058-1.878,0-3.759c-.016-.514.132-.642.642-.64,4.58.02,9.16,0,13.74.027.586,0,.748-.132.724-.721-.051-1.251,0-2.507-.026-3.759-.011-.444.118-.569.562-.559,1.308.029,2.618.043,3.925-.005.558-.02.558.235.556.645-.012,2.925-.02,5.849.006,8.773,0,.514-.134.642-.643.638-3.167-.024-6.334-.012-9.5-.012" transform="translate(-123.386 -102.584)"/>
    <path id="Path_270" data-name="Path 270" d="M307.106,339.394c0-2.272.016-4.544-.013-6.815-.007-.512.13-.642.642-.64q6.909.031,13.818,0c.511,0,.659.125.643.639q-.059,1.878,0,3.759c.016.513-.13.645-.642.64-2.931-.025-5.862,0-8.793-.025-.513,0-.646.13-.641.641.026,2.924,0,5.849.025,8.773,0,.512-.129.656-.642.64-1.281-.038-2.565-.032-3.847,0-.446.01-.564-.121-.56-.561.022-2.35.01-4.7.01-7.05" transform="translate(-246.781 -266.748)"/>
    <path id="Path_271" data-name="Path 271" d="M291.573,237.351c0,2.3-.016,4.6.013,6.893.006.512-.128.656-.642.64q-1.882-.058-3.768,0c-.516.016-.645-.132-.641-.641.025-2.924,0-5.849.025-8.773,0-.512-.13-.655-.643-.64-1.281.038-2.565-.007-3.846.023-.447.01-.57-.12-.56-.562q.043-1.957,0-3.916c-.01-.447.123-.56.564-.557q4.475.029,8.95,0c.446,0,.563.122.559.561-.022,2.324-.01,4.648-.01,6.971" transform="translate(-226.223 -184.683)"/>
    <path id="Path_272" data-name="Path 272" d="M230.344,209.239c0-1.462.015-2.925-.009-4.386-.007-.42.075-.589.545-.577,1.308.033,2.617.027,3.925,0,.422-.008.58.078.577.544q-.033,4.465,0,8.929c0,.42-.075.589-.544.577-1.308-.033-2.618-.042-3.925,0-.531.018-.582-.188-.575-.628.024-1.488.009-2.976.009-4.465" transform="translate(-185.098 -164.157)"/>
    <path id="Path_273" data-name="Path 273" d="M255.935,285.834c0-1.462.015-2.924-.009-4.386-.007-.426.087-.583.549-.572,1.334.032,2.669.023,4,0,.362-.005.494.076.492.468q-.024,4.543,0,9.086c0,.36-.073.5-.468.492-1.36-.024-2.722-.032-4.082,0-.468.012-.491-.193-.488-.552.013-1.514.005-3.029.005-4.543" transform="translate(-205.663 -225.713)"/>
    <path id="Path_274" data-name="Path 274" d="M156.012,102.167c.706,0,1.414.022,2.119-.009.386-.017.481.115.476.485q-.031,2.036,0,4.072c.006.384-.116.48-.486.474q-2.041-.031-4.082,0c-.385.006-.481-.115-.475-.485q.031-2.036,0-4.072c-.006-.384.115-.49.486-.474.653.028,1.308.008,1.962.008" transform="translate(-123.405 -82.094)"/>
    <path id="Path_275" data-name="Path 275" d="M53.217,157.817c-.8-.043-1.869.391-2.321-.124-.392-.447-.129-1.491-.107-2.27.025-.85-.376-1.99.159-2.466.469-.419,1.592-.132,2.425-.113.8.019,1.87-.349,2.32.154.393.44.13,1.489.107,2.268-.025.85.376,1.993-.159,2.465-.467.413-1.591.086-2.425.086" transform="translate(-40.718 -122.735)"/>
    <path id="Path_276" data-name="Path 276" d="M158.586,334.4c0,.653-.026,1.307.009,1.957.024.447-.054.642-.578.624-1.307-.044-2.617-.037-3.924,0-.474.012-.549-.164-.541-.58.024-1.3.031-2.611,0-3.915-.013-.473.164-.548.581-.54,1.308.024,2.617.031,3.925,0,.474-.012.562.163.54.58-.032.625-.008,1.253-.008,1.879" transform="translate(-123.392 -266.746)"/>
    <path id="Path_277" data-name="Path 277" d="M56.249,55.686c.006.342-.092.446-.438.44q-2.08-.027-4.16,0c-.344.006-.448-.09-.442-.438q.027-2.074,0-4.15c0-.342.09-.454.438-.442.707.026,1.414.008,2.119.008.681,0,1.363.018,2.043-.006.342-.014.446.09.442.438q-.029,2.074,0,4.15" transform="translate(-41.152 -41.061)" fill="#fefefe"/>
    <path id="Path_278" data-name="Path 278" d="M337.741,55.584c.01.359-.024.562-.489.55-1.361-.035-2.722-.027-4.083,0-.395.008-.473-.132-.467-.491.02-1.357.022-2.716,0-4.073-.006-.393.132-.471.493-.467,1.361.02,2.722.024,4.081,0,.395-.008.483.13.469.491-.026.678-.008,1.357-.008,2.037,0,.652-.014,1.306.006,1.958" transform="translate(-267.359 -41.063)" fill="#fefefe"/>
    <path id="Path_279" data-name="Path 279" d="M56.251,336.551c.012.348-.1.442-.444.438q-2.08-.027-4.16,0c-.348.006-.442-.1-.438-.442q.027-2.074,0-4.15c-.006-.348.1-.442.442-.438q2.08.027,4.16,0c.348,0,.45.1.438.442-.024.705-.006,1.41-.006,2.115,0,.678-.02,1.357.008,2.035" transform="translate(-41.152 -266.764)" fill="#fefefe"/>
    <path id="Path_280" data-name="Path 280" d="M56.249,55.686c.006.342-.092.446-.438.44q-2.08-.027-4.16,0c-.344.006-.448-.09-.442-.438q.027-2.074,0-4.15c0-.342.09-.454.438-.442.707.026,1.414.008,2.119.008.681,0,1.363.018,2.043-.006.342-.014.446.09.442.438q-.029,2.074,0,4.15" transform="translate(-41.152 -41.061)"/>
    <path id="Path_281" data-name="Path 281" d="M337.741,55.584c.01.359-.024.562-.489.55-1.361-.035-2.722-.027-4.083,0-.395.008-.473-.132-.467-.491.02-1.357.022-2.716,0-4.073-.006-.393.132-.471.493-.467,1.361.02,2.722.024,4.081,0,.395-.008.483.13.469.491-.026.678-.008,1.357-.008,2.037,0,.652-.014,1.306.006,1.958" transform="translate(-267.359 -41.063)"/>
    <path id="Path_282" data-name="Path 282" d="M56.251,336.551c.012.348-.1.442-.444.438q-2.08-.027-4.16,0c-.348.006-.442-.1-.438-.442q.027-2.074,0-4.15c-.006-.348.1-.442.442-.438q2.08.027,4.16,0c.348,0,.45.1.438.442-.024.705-.006,1.41-.006,2.115,0,.678-.02,1.357.008,2.035" transform="translate(-41.152 -266.764)"/>
  </g>
</svg>
